# xmcd
#
# Track frame offsets:
#	150
#	24342
#	44836
#	62542
#	76387
#	103317
#	117078
#	144179
#	159813
#	167225
#	182279
#	205070
#
# Disc length: 3026 seconds
#
# Revision: 0
# Processed by: cddbd v1.5.2PL0 Copyright (c) Steve Scherf et al.
# Submitted via: EasyCDDAExtractor 11.9.9.666
#
DISCID=930bd00c
DTITLE=Roger Dean Young and The Tin Cup - Casa
DYEAR=1900
DGENRE=
TTITLE0=Down Juan
TTITLE1=The Bottoms
TTITLE2=Congress of Spring
TTITLE3=Slide
TTITLE4=Little Wind
TTITLE5=Stettler II
TTITLE6=Carry on Heather - Rhapsody
TTITLE7=Wanderlust
TTITLE8=Lone Mare
TTITLE9=Bently to Clive
TTITLE10=Red amber amulet
TTITLE11=All these Marias
EXTD=
EXTT0=
EXTT1=
EXTT2=
EXTT3=
EXTT4=
EXTT5=
EXTT6=
EXTT7=
EXTT8=
EXTT9=
EXTT10=
EXTT11=
PLAYORDER=
